<?xml version="1.0" standalone="no"?>
<!DOCTYPE svg PUBLIC "-//W3C//DTD SVG 20010904//EN"
 "http://www.w3.org/TR/2001/REC-SVG-20010904/DTD/svg10.dtd">
<svg version="1.0" xmlns="http://www.w3.org/2000/svg"
 width="898.000000pt" height="898.000000pt" viewBox="0 0 898.000000 898.000000"
 preserveAspectRatio="xMidYMid meet">
<metadata>
Created by potrace 1.11, written by Peter Selinger 2001-2013
</metadata>
<g transform="translate(0.000000,898.000000) scale(0.100000,-0.100000)"
fill="#000000" stroke="none">
<path d="M4229 8976 c-2 -2 -44 -6 -94 -10 -415 -28 -875 -135 -1295 -304
-671 -268 -1303 -731 -1766 -1292 -549 -666 -894 -1462 -999 -2305 -4 -27 -8
-60 -10 -72 -20 -125 -28 -666 -12 -873 10 -140 52 -427 83 -570 111 -519 293
-968 587 -1455 39 -64 172 -255 240 -345 127 -166 239 -294 401 -455 540 -539
1185 -919 1922 -1130 66 -19 129 -36 140 -38 10 -2 30 -7 44 -10 113 -27 172
-39 284 -57 282 -46 404 -55 736 -55 335 0 443 8 710 51 927 152 1758 579
2425 1248 440 442 765 935 997 1511 121 301 232 718 272 1020 3 22 10 72 15
110 26 186 36 681 18 910 -7 100 -34 327 -42 355 -2 8 -7 35 -10 58 -3 24 -17
96 -31 160 -178 847 -600 1627 -1209 2237 -243 244 -418 389 -690 570 -625
416 -1256 642 -2045 730 -61 7 -664 17 -671 11z"/>
</g>
</svg>
